<?xml version="1.0" standalone="no"?>
<!DOCTYPE svg PUBLIC "-//W3C//DTD SVG 1.1//EN" "http://www.w3.org/Graphics/SVG/1.1/DTD/svg11.dtd" >
<svg xmlns="http://www.w3.org/2000/svg">
<metadata></metadata>
<defs>
<font id="marbre_sans" horiz-adv-x="1118" >
<font-face units-per-em="2048" ascent="1638" descent="-410" />
<missing-glyph horiz-adv-x="614" />
<glyph horiz-adv-x="0" />
<glyph unicode="&#xd;" horiz-adv-x="614" />
<glyph horiz-adv-x="0" />
<glyph horiz-adv-x="0" />
<glyph d="M158 600v98h803v-98h-803z" />
<glyph unicode=" "  horiz-adv-x="614" />
<glyph unicode="&#x09;" horiz-adv-x="614" />
<glyph unicode="&#xa0;" horiz-adv-x="614" />
<glyph unicode="!" horiz-adv-x="430" d="M121 96q0 39 26 66q29 28 66 28q39 0 68 -28q29 -29 28 -66q0 -39 -28 -67q-29 -29 -68 -29q-37 0 -66 29q-27 27 -26 67zM166 481v1157h98v-1157h-98z" />
<glyph unicode="&#x22;" horiz-adv-x="800" d="M125 1522q0 51 35 80q37 30 88 30q43 0 71.5 -18.5t45 -45t23.5 -56t7 -52.5q0 -141 -174 -289l-41 3q78 66 127 140.5t49 129.5q0 18 -5 31.5t-11 23.5q-8 10 -16 21q-6 -27 -21 -47q-12 -18 -33.5 -33t-56.5 -15q-39 0 -63 27q-25 27 -25 70zM410 1522q0 51 34 80 q37 30 88 30q43 0 72 -18.5t46.5 -45t24.5 -56t7 -52.5q0 -141 -176 -289l-41 3q78 66 127 140.5t49 129.5q0 18 -5 31.5t-11 23.5q-8 10 -17 21q-6 -27 -20 -47q-12 -18 -32.5 -33t-55.5 -15q-39 0 -64 27q-27 31 -26 70z" />
<glyph unicode="#" horiz-adv-x="1007" d="M113 0l153 647h-153v19h157l72 305h-139v18h145l154 649h98l-156 -649h215l156 649h96l-153 -649h153v-18h-157l-74 -305h141v-19h-145l-154 -647h-98l156 647h-215l-156 -647h-96zM369 666h215l71 305h-215z" />
<glyph unicode="$" horiz-adv-x="968" d="M94 229h21q39 -57 92 -104q45 -41 108.5 -74t145.5 -35v807q-59 20 -111.5 35.5t-97.5 48.5q-98 68 -134 153t-20 181q16 88 73.5 171t166.5 120q55 18 104 18q4 0 8.5 -1t8.5 -1v90h18v-90q68 -10 117 -44t82 -74q37 -47 63 -103h-18q-25 51 -62 94q-31 37 -76.5 69 t-105.5 42l2 -604q66 -23 127.5 -46.5t108.5 -60.5q76 -66 110.5 -151.5t36.5 -174.5t-25.5 -176.5t-78.5 -157t-123 -112.5t-156 -47v-92h-18v92q-92 0 -160 36t-115 79q-53 51 -92 112zM163 1164.5q11 -62.5 52 -105.5q43 -47 107.5 -75t136.5 -50v600q-4 0 -7 1t-8 1 q-4 0 -7 -1t-7 -1h-8q-70 -6 -117 -35q-55 -31 -91 -88t-49 -120.5t-2 -126zM479 18q82 4 144.5 48.5t102.5 112t55.5 150.5t4 163.5t-52.5 150.5t-115 111q-76 43 -139 63v-799z" />
<glyph unicode="%" horiz-adv-x="1024" d="M111 1310.5q0 61.5 15 121t44 108.5t63 72q35 27 80 26q43 0 78 -26q35 -23 64 -72t44 -108.5t15 -121t-14.5 -119.5t-44.5 -108q-29 -49 -64 -71q-35 -27 -78 -27q-45 0 -80 27q-35 23 -63 71q-31 49 -45 107.5t-14 120zM113 0l702 1638h96l-702 -1638h-96zM182 1311 q0 -53 7.5 -107.5t22.5 -98.5t39.5 -72.5t57.5 -31.5h4h4q33 2 56.5 32t38 75t21.5 99.5t7 107.5t-7 107.5t-22.5 98.5t-39 71.5t-56.5 29.5h-6q-33 -2 -57.5 -30.5t-39.5 -72.5t-22.5 -99.5t-7.5 -108.5zM512 325.5q0 61.5 15.5 121t43.5 108.5q29 49 64 72q35 27 80 26 q45 0 80 -26q18 -12 32.5 -30.5t28.5 -41.5q29 -49 44 -108.5t15 -121t-14 -120t-45 -107.5q-14 -23 -28.5 -41t-32.5 -30q-35 -27 -80 -27t-80 27q-35 23 -64 71q-31 49 -45 107.5t-14 120zM586 326q0 -53 7 -107.5t22.5 -98.5t39 -73t56.5 -31h4h4q33 2 56.5 32t37.5 75 t21.5 99t7.5 108q0 53 -7.5 107.5t-22.5 98.5t-38.5 71.5t-56.5 29.5h-4q-33 -2 -57.5 -30.5t-40 -73t-22.5 -99.5t-7 -108z" />
<glyph unicode="&#x26;" horiz-adv-x="1034" d="M115 420q-12 172 53 315q33 72 82 123t115 90q-47 115 -75 205t-32 152q-4 63 10.5 119.5t42.5 107.5q57 100 156 106q96 6 170 -67q72 -74 82 -199q4 -78 -26.5 -141.5t-76 -112.5t-93.5 -85t-77 -56q82 -180 150 -324q29 -61 56.5 -121.5t50 -108.5t37 -80t18.5 -38 q18 51 36.5 131t34 172t23.5 189.5t8 185.5h21q2 -94 -6.5 -192.5t-24.5 -190.5t-36.5 -172t-43.5 -137l156 -291h-129l-39 78l-51 102q-55 -86 -119 -133t-137 -51q-147 -10 -236 115q-88 125 -100 309zM190 578q6 -78 26 -171.5t63 -191.5t93 -142t99 -40q27 2 58.5 16 t62.5 38t58.5 53.5t47.5 60.5q-45 92 -89 188t-87 190.5t-80.5 184.5t-70.5 170q-35 -27 -70 -57.5t-61.5 -71.5t-41 -96.5t-8.5 -130.5zM340 1430q2 -27 7 -74t16.5 -106.5t30.5 -126.5t48 -130q51 37 91 90.5t68 106.5t41 101t11 75q-4 55 -21.5 103.5t-43 84t-56 55 t-57.5 17.5q-41 -2 -67.5 -23.5t-42 -51t-21.5 -63.5t-4 -58z" />
<glyph unicode="'" horiz-adv-x="516" d="M125 1522q0 51 35 80q37 31 88 30q43 0 71.5 -18.5t45 -45t23.5 -56t7 -52.5q0 -141 -174 -289l-41 3q78 66 127 140.5t49 129.5q0 18 -5 31.5t-11 23.5q-8 10 -16 21q-6 -27 -21 -47q-12 -18 -33.5 -33t-56.5 -15q-39 0 -63 27q-25 27 -25 70z" />
<glyph unicode="(" horiz-adv-x="710" d="M135 813q0 127 32 248t91 231q119 217 322 344h22q-102 -63 -174 -152t-117 -196.5t-66.5 -227.5t-21.5 -243t20.5 -242.5t65.5 -226t117 -196t172 -152.5h-20l2 -6q-100 63 -181.5 150t-140.5 192q-59 109 -91 229.5t-32 247.5z" />
<glyph unicode=")" horiz-adv-x="706" d="M104 1642h23q203 -127 322 -344q59 -111 90.5 -231.5t31.5 -247.5t-31.5 -247.5t-90.5 -229.5q-59 -104 -140.5 -191.5t-181.5 -150.5h-21l3 6q100 63 171.5 152.5t116.5 196t65.5 226t20.5 242.5t-21.5 243t-66.5 227.5t-117.5 196.5t-173.5 152z" />
<glyph unicode="*" horiz-adv-x="1032" d="M119 819l356 408l-356 174v18l356 -174v393h84v-393l359 174v-18l-357 -174l357 -408h-84l-316 361l-315 -361h-84z" />
<glyph unicode="+" horiz-adv-x="1253" d="M104 639v18h478v517h96v-517h477v-18h-477v-516h-96v516h-478z" />
<glyph unicode="," horiz-adv-x="501" d="M127 88q0 43 31 72q29 26 78 26q39 0 64.5 -16t40.5 -40t21.5 -50.5t6.5 -46.5q0 -127 -156 -258h-37q68 59 113 126.5t45 116.5q0 16 -5 28.5t-10 21.5q-8 8 -14 16q-6 -25 -18 -43q-10 -16 -29.5 -28.5t-50.5 -12.5q-33 0 -57 25q-23 23 -23 63z" />
<glyph unicode="-" d="M158 600v98h803v-98h-803z" />
<glyph unicode="." horiz-adv-x="448" d="M127 96q0 39 27 66q29 29 65 28q39 0 68 -28q29 -29 28 -66q0 -39 -28 -67q-29 -29 -68 -29q-37 0 -65 29q-27 26 -27 67z" />
<glyph unicode="/" horiz-adv-x="995" d="M102 0l703 1638h96l-702 -1638h-97z" />
<glyph unicode="0" horiz-adv-x="1239" d="M118 815.5q1 153.5 38 302t108 273.5q70 117 158 180q92 66 199 65h2q104 0 196 -65q88 -63 158 -180q72 -125 108.5 -273.5t37.5 -302t-35.5 -301t-110.5 -268.5q-72 -117 -158 -178q-96 -68 -196 -68h-2q-104 0 -199 68q-86 61 -158 178q-74 121 -110.5 268.5 t-35.5 301zM233 825q0 -133 29 -274t78 -258t117.5 -193.5t152.5 -83.5h11h12q82 6 151.5 83t118.5 194t78 258t29 274q0 88 -13.5 181.5t-37 181.5t-57.5 166t-76 137t-92 94t-105 37h-15q-55 -2 -105 -37t-92 -94t-76 -137t-57.5 -166t-37 -181.5t-13.5 -181.5z" />
<glyph unicode="1" horiz-adv-x="790" d="M84 1174l553 464v-1638h-96v1536l-435 -362h-22z" />
<glyph unicode="2" horiz-adv-x="1005" d="M100 0q193 362 344 659q63 127 126 251t112 227.5t79 174t30 93.5q0 98 -53.5 156.5t-127.5 58.5h-319v18h319q55 0 106.5 -16t92.5 -47q43 -35 66.5 -78t23.5 -92q0 -29 -7 -51.5t-24 -53.5l-649 -1282h682v-18h-801z" />
<glyph unicode="3" horiz-adv-x="1073" d="M98 0v18h379q16 0 50 5.5t77 24t88 55t82 100t60.5 158t23.5 227.5q0 127 -23.5 220t-60.5 157.5t-82 105.5t-88 63.5t-76.5 31t-50.5 8.5h-274l479 448l-584 2v14h723l-459 -446q37 -2 70 -2h84q98 -10 180.5 -65.5t143.5 -139.5q59 -80 91 -182.5t32 -214.5 q0 -113 -32 -216.5t-91 -183.5q-68 -92 -161 -140t-202 -48h-379z" />
<glyph unicode="4" horiz-adv-x="1093" d="M84 950l772 686v2v-669h154v-19h-154v-950h-96v950h-676zM242 969h518v461z" />
<glyph unicode="5" horiz-adv-x="1017" d="M121 0v18h301q16 0 50 5.5t76 24t87 55t82 100t60.5 158t23.5 227.5q0 190 -50.5 306t-116 177.5t-127 82t-85.5 20.5h-301v464h514v-18h-418v-428q61 -2 113 -2h131q98 -10 180 -65.5t143 -139.5q59 -80 91 -182.5t32 -214.5q0 -113 -31.5 -216.5t-91.5 -183.5 q-68 -92 -161 -140t-201 -48h-301z" />
<glyph unicode="6" horiz-adv-x="1146" d="M118 815.5q1 153.5 38 302t108 273.5q70 117 158 180q92 66 199 65q61 0 108 -32.5t84 -77.5t62.5 -91t42.5 -73h-23q-68 133 -138.5 196.5t-135.5 63.5q-84 0 -155 -73.5t-122 -189.5t-81 -257t-30 -277q14 33 29 64q12 27 26.5 54.5t28.5 47.5q29 41 62 73t70 54 q41 23 81.5 36t83.5 13h2q43 0 83 -13t81 -36q37 -23 70.5 -54.5t62.5 -72.5q61 -90 92 -195.5t31 -215t-30.5 -214t-92.5 -190.5q-59 -80 -133 -127q-41 -23 -81 -36t-83 -13h-2q-37 0 -85 12.5t-107 55.5q-86 61 -158 178q-74 121 -110.5 268.5t-35.5 301zM238 733 q6 -98 26.5 -196.5t53 -185.5t74.5 -158.5t93 -116.5q29 -25 57.5 -41.5t63.5 -18.5h8h11q70 4 127 58.5t98 137.5t64.5 182.5t23.5 193.5t-23.5 193.5t-65.5 179t-100.5 132t-127.5 54.5h-13q-215 -6 -336 -299q-4 -10 -17 -46t-17 -69z" />
<glyph unicode="7" horiz-adv-x="997" d="M104 0l695 1620h-695v18h799l-702 -1638h-97z" />
<glyph unicode="8" horiz-adv-x="1228" d="M116 582.5q1 109.5 37.5 216t108.5 196.5q35 41 74 73t84 54q68 33 141 43q-20 4 -39.5 7.5t-38.5 9.5q-61 18 -106 51q-51 35 -76 78t-25 88t26 88t75 80q45 33 106 51q33 10 66 15t67 5h2q35 0 68 -5t66 -15q66 -20 108 -51q49 -37 75 -80t26 -88t-25 -88t-76 -78 q-43 -31 -108 -51q-18 -6 -37 -9.5t-39 -7.5q72 -8 139 -43q45 -23 84 -54.5t74 -72.5q72 -90 108.5 -196.5t37.5 -216t-35.5 -215t-110.5 -191.5q-35 -41 -74 -72.5t-84 -54.5q-47 -23 -96 -36t-101 -13h-2q-51 0 -100 13.5t-96 35.5q-45 23 -84 54.5t-74 72.5 q-74 86 -110.5 191.5t-35.5 215zM231 590q0 -96 29 -194.5t78 -180.5t117.5 -135t150.5 -57h12h11q82 4 150.5 57t117.5 135t78 180.5t29 194.5q0 94 -29 193.5t-79 180t-119.5 133t-151.5 54.5h-15q-84 -2 -152.5 -54.5t-118.5 -133t-79 -180t-29 -193.5zM354 1401 q0 -39 19.5 -78t53.5 -71.5t81 -53t102 -22.5h8h7q55 2 102 22.5t81 53t53.5 71.5t19.5 78t-19.5 79t-53.5 71.5t-81 52t-104 20.5h-11q-57 0 -104 -20.5t-81 -52t-53.5 -71.5t-19.5 -79z" />
<glyph unicode="9" horiz-adv-x="1130" d="M100 1057.5q0 109.5 31 214t92 190.5q61 82 131 127q82 47 166 47q37 0 85 -11t108 -54q86 -61 157 -178q74 -121 111 -269.5t36 -302t-38 -302t-109 -273.5q-68 -113 -157 -178q-96 -68 -199 -68q-61 0 -108.5 34t-84 79t-62.5 91t-42 72h23q68 -133 138.5 -196.5 t135.5 -63.5q84 0 154.5 74t122 189.5t81 257t29.5 276.5q-14 -33 -29 -63q-12 -27 -26.5 -55.5t-26.5 -47.5q-29 -41 -62.5 -73.5t-70.5 -55.5q-82 -47 -166 -47t-166 47q-78 49 -131 129q-61 88 -92 194.5t-31 216zM197 1051q0 -96 23.5 -194.5t65.5 -178.5t100 -132 t128 -54h12q106 4 191.5 75.5t146.5 220.5q4 10 17.5 46t17.5 69q-6 98 -26.5 196.5t-53.5 186.5t-75 160t-93 117q-29 25 -57.5 40t-63.5 17h-10h-8q-70 -4 -127 -58.5t-99 -136.5t-65.5 -181t-23.5 -193z" />
<glyph unicode=":" horiz-adv-x="491" d="M152 92q0 41 26 68q29 29 68 28v-2q41 0 67 -26q29 -29 29 -68t-29 -67q-29 -29 -67 -29q-39 0 -68 29q-27 27 -26 67zM152 1069q0 41 26 68q29 29 68 28q41 0 67 -26q29 -29 29 -68t-29 -67q-29 -29 -67 -29v-2q-39 0 -68 28q-27 27 -26 68z" />
<glyph unicode=";" horiz-adv-x="507" d="M135 88q0 43 33 72q29 26 78 26q39 0 64.5 -16t41 -40t21.5 -50.5t6 -46.5q0 -127 -156 -258h-37q68 59 113 126.5t45 116.5q0 16 -5 28.5t-11 21.5q-8 8 -15 16q-4 -25 -16 -43q-10 -16 -29.5 -28.5t-50.5 -12.5q-33 0 -57 25q-25 25 -25 63zM135 778q0 39 29 68 q27 27 65 26q41 0 68 -26q29 -29 29 -68t-29 -67q-27 -27 -68 -27q-39 0 -65 27q-29 29 -29 67z" />
<glyph unicode="&#x3c;" horiz-adv-x="1042" d="M100 584l703 587h131l-703 -587l703 -586h-131z" />
<glyph unicode="=" horiz-adv-x="1075" d="M139 385v96h803v-96h-803zM139 815v96h803v-96h-803z" />
<glyph unicode="&#x3e;" horiz-adv-x="1032" d="M102 0l703 586l-703 588h131l703 -588l-703 -586h-131z" />
<glyph unicode="?" horiz-adv-x="792" d="M88 1620v18h320q55 0 106 -16t92 -47q43 -35 66.5 -78t23.5 -92q0 -29 -8 -51.5t-24 -53.5q-82 -139 -146 -268q-29 -55 -54.5 -115.5t-46 -118t-32.5 -109.5t-12 -95v-102h-90q-4 63 0 124q4 53 13 111.5t32 101.5q51 104 98 200.5t83 173.5t56.5 130t20.5 72 q0 98 -52.5 156.5t-125.5 58.5h-320zM238 96q0 39 26 66q29 28 66 28q39 0 67 -28q29 -29 29 -66q0 -39 -29 -67q-29 -29 -67 -29q-37 0 -66 29q-27 27 -26 67z" />
<glyph unicode="@" horiz-adv-x="1576" d="M123 608q-2 205 45 391.5t139 333.5q86 141 211 223q125 84 262 84t264 -79q59 -39 113.5 -93.5t102.5 -126.5q96 -145 147 -329t53 -389q0 -49 -4 -115t-14 -135.5t-28.5 -137t-45.5 -121t-63.5 -86t-83.5 -32.5q-23 0 -45.5 5t-41 30.5t-30.5 78t-12 148.5 q-10 -23 -21.5 -42t-26.5 -40q-61 -82 -131 -127q-78 -49 -161 -49q-86 0 -162 49q-70 45 -131 127q-61 86 -91 192.5t-30 216t30.5 216t90.5 196.5q29 41 61.5 73t69.5 54q76 49 162 50q84 0 161 -50q37 -23 70 -54.5t61 -72.5q8 -12 14.5 -25.5t14.5 -25.5v228h90v-873 q0 -59 -1 -110.5t2 -89.5t14.5 -59.5t35.5 -21.5q41 0 72 33t54.5 85t39 118t24.5 132.5t13 128t4 106.5q-2 199 -52 378t-142 320q-92 137 -206 210t-239 71q-131 -2 -244.5 -81t-198.5 -213t-132 -314.5t-45 -385.5q2 -199 51 -378t141 -320q92 -137 207 -210t240 -71 q80 2 157.5 34t147.5 93l27 -28q-154 -133 -332 -138h-4q-137 0 -260 80q-121 78 -213 219q-96 145 -147.5 329.5t-53.5 389.5zM434 592q0 -96 23.5 -196.5t64.5 -184.5t97.5 -139.5t123.5 -59.5h9h8q68 4 124 59.5t97 139.5t64.5 184.5t23.5 196.5t-23.5 196.5t-64.5 182.5 t-98.5 135t-124.5 55h-13q-68 -2 -125 -55t-98 -135t-64.5 -182.5t-23.5 -196.5z" />
<glyph unicode="A" horiz-adv-x="978" d="M100 0l381 1638l396 -1638h-101l-231 952h-205l-221 -952h-19zM344 971h197l-101 413z" />
<glyph unicode="B" horiz-adv-x="1009" d="M147 0v1636h252q121 0 207 -80q92 -86 92 -210q0 -127 -92 -213q-39 -37 -94 -60q-16 -4 -25 -8q82 -16 152 -63t123 -113q57 -72 88 -165t31 -196q0 -102 -31 -194t-88 -164q-66 -84 -157 -127t-195 -43h-263zM252 16h158q16 0 49 4.5t73.5 21.5t83.5 50t80 90.5 t59.5 141.5t22.5 204q0 154 -41 254.5t-96 159.5t-113.5 86t-93.5 33h-182v-1045zM252 1075h147q92 0 139.5 77t47.5 194q0 125 -54.5 201.5t-132.5 76.5l-147 -2v-547z" />
<glyph unicode="C" horiz-adv-x="1095" d="M120 816q1 154 38 303t108 274q68 113 158 178q93 67 196 67h3q68 0 132 -29.5t122 -84.5q31 -29 60.5 -72t55.5 -90h-20q-35 63 -78 112.5t-90 82t-94 49t-88 16.5q-84 0 -155 -73.5t-122 -189.5t-80.5 -257t-29.5 -277q0 -135 29.5 -278.5t80.5 -261t122 -193.5 t155 -76q41 0 89 16.5t95 49.5t91 82t79 112h16q-27 -47 -56.5 -90t-59.5 -71q-117 -113 -254 -113q-106 0 -199 66q-86 61 -158 178q-74 120 -110 268q-36 144 -36 293v9z" />
<glyph unicode="D" horiz-adv-x="1112" d="M147 0v1638h142q143 0 274 -65q63 -31 118.5 -76t102.5 -102q98 -117 148.5 -264.5t50.5 -311.5t-50 -311.5t-149 -263.5q-47 -57 -102 -102.5t-119 -75.5q-131 -66 -272 -66h-144zM246 18h43q123 0 229.5 70t186 183.5t126 257t46.5 290.5t-46.5 290.5t-126 257.5 t-186 183.5t-229.5 69.5h-43v-1602z" />
<glyph unicode="E" horiz-adv-x="954" d="M147 0v1638h693v-18h-594v-524h594v-19h-594v-1059h594v-18h-693z" />
<glyph unicode="F" horiz-adv-x="944" d="M147 0v1638h693v-18h-594v-524h594v-19h-594v-1077h-99z" />
<glyph unicode="G" horiz-adv-x="1177" d="M120 816q1 153 34.5 302.5t101.5 274.5q61 113 145 178q85 67 180 67h3q127 0 235 -114q29 -29 55.5 -72t51.5 -90h-25q-63 129 -152.5 194.5t-164.5 65.5q-78 0 -143.5 -73.5t-112.5 -189.5t-74 -257t-27 -277q0 -143 29 -292.5t82 -270.5q59 -123 114.5 -184.5 t129.5 -61.5q78 0 143.5 76t113.5 193.5t74.5 261t26.5 278.5q0 61 -6 127h-350v19h452q10 -81 10 -161q0 -111 -19 -222q-32 -189 -118 -342q-66 -117 -145 -178q-84 -66 -182 -66q-127 0 -234 113q-10 10 -25.5 31.5t-29.5 43t-24.5 38t-12.5 18.5q-70 121 -104 268 q-32 144 -32 293v9z" />
<glyph unicode="H" horiz-adv-x="1093" d="M147 0v1638h99v-542h594v542h98l-2 -1638h-96v1077h-594v-1077h-99z" />
<glyph unicode="I" horiz-adv-x="403" d="M147 0v1638h99v-1638h-99z" />
<glyph unicode="J" horiz-adv-x="1073" d="M133 442h21v-4q8 -119 49 -213q18 -41 44.5 -78.5t66.5 -66.5t92.5 -47.5t121.5 -18.5q111 0 172.5 45t91 114t36 153t6.5 161v1149h98v-1134q-4 -141 -47 -252q-18 -47 -48 -92t-73 -80t-101.5 -56.5t-134.5 -21.5t-132 19.5t-98 50t-70.5 70.5t-47.5 81q-43 98 -47 221 z" />
<glyph unicode="K" horiz-adv-x="1048" d="M147 -2v1638h99v-565l667 565h35l-629 -538l629 -1100h-110l-592 1032v-1032h-99z" />
<glyph unicode="L" horiz-adv-x="1024" d="M147 0v1638h99v-1618h702v-18l-702 -2h-99z" />
<glyph unicode="M" horiz-adv-x="1163" d="M147 0v1638h101l332 -1388l329 1388h97v-1638h-97v1559l-370 -1559l-373 1561v-1561h-19z" />
<glyph unicode="N" horiz-adv-x="1103" d="M147 0v1638h109l674 -1376v1376h18v-1638l-782 1599v-1599h-19z" />
<glyph unicode="O" horiz-adv-x="1259" d="M120 816q1 154 38 303t108 274q68 113 158 178q93 67 196 67h3h2q100 0 196 -67q90 -65 158 -178q72 -125 109 -275q36 -148 37 -302v-9q1 -149 -35 -293q-36 -148 -111 -268q-72 -117 -158 -178q-92 -66 -196 -66h-2q-106 0 -199 66q-86 61 -158 178q-74 120 -110 268 q-36 144 -36 293v9zM236 825q0 -133 28.5 -273t77.5 -257t117.5 -193.5t152.5 -83.5q2 -2 4 -2h7h8q2 0 4 2q82 6 151.5 83t118.5 194t78 257t29 273q0 88 -13.5 181.5t-37 181.5t-57.5 166t-76 137t-92 94t-105 37h-15q-55 -2 -105 -37t-92 -94t-76 -137t-57.5 -166 t-36.5 -181.5t-13 -181.5z" />
<glyph unicode="P" horiz-adv-x="796" d="M147 0v1638h269q111 0 194 -79q86 -86 86 -213q0 -125 -86 -211q-8 -8 -24.5 -20.5t-38 -25t-45 -21.5t-47.5 -13h-209v-1055h-99zM246 1069h170q43 0 75.5 21.5t54 59.5t33 88t11.5 108q0 61 -13.5 113t-37 89t-55 57.5t-68.5 20.5h-170v-557z" />
<glyph unicode="Q" horiz-adv-x="1263" d="M120 816q1 153 38 302.5t108 274.5q68 113 158 178q93 67 196 67h3h2q100 0 196 -67q90 -66 158 -178q72 -125 108.5 -274.5t37.5 -302.5v-9q0 -149 -35 -293q-37 -147 -111 -268q-4 -6 -8 -12.5t-8 -12.5l163 -221h-22l-152 205q-29 -43 -62.5 -77t-68.5 -60 q-92 -66 -196 -66h-2q-106 0 -199 66q-86 61 -158 178q-74 121 -110 268q-36 144 -36 293v9zM236 825q0 -133 28.5 -273t77.5 -257t117.5 -193.5t152.5 -83.5q2 -2 4 -2h7h8q2 0 4 2q80 4 147.5 77t116.5 184l-278 374h24l262 -354q49 117 77 255t28 271q0 88 -13.5 181.5 t-37 181.5t-57.5 166t-76 137t-92 94t-105 37h-15q-55 -2 -105 -37t-92 -94t-76 -137t-57.5 -166t-36.5 -181.5t-13 -181.5z" />
<glyph unicode="R" horiz-adv-x="1042" d="M147 0v1638h269q111 0 194 -79q86 -86 86 -213q0 -125 -86 -211q-16 -16 -58 -43t-89 -35l485 -1057h-98l-483 1055h-121v-1055h-99zM246 1069h170q43 0 75.5 21.5t54 59.5t33 88t11.5 108q0 61 -13.5 113t-37 89t-55 57.5t-68.5 20.5h-170v-557z" />
<glyph unicode="S" horiz-adv-x="1003" d="M104 244h21q39 -63 92 -113q45 -43 109.5 -78t148.5 -35t148.5 46.5t106.5 118t60 160.5q11 54 10 106q0 35 -4 69q-12 86 -53 161t-114 120q-57 33 -107.5 52t-96.5 34.5t-86 31t-77 44.5q-98 73 -134 161q-24 60 -24 126q0 32 5 65q8 45 26.5 92t47 88t70.5 75t95 52 q29 10 54.5 14t50.5 4q78 0 133 -36.5t92 -81.5q43 -53 72 -117h-19q-29 61 -69 110q-35 41 -87.5 76t-119.5 35q-4 0 -7.5 -1t-7.5 -1h-8q-66 -6 -117 -37q-55 -33 -91 -92t-49 -127q-7 -37 -7 -73q0 -31 5 -61q11 -66 52 -112q43 -49 107.5 -78.5t135.5 -54t139.5 -50.5 t117.5 -69q76 -70 111.5 -162t36.5 -188v-6q-1 -93 -29 -183q-30 -93 -82.5 -166t-126.5 -117t-160 -44q-92 0 -160.5 37t-115.5 84q-53 53 -95 121z" />
<glyph unicode="T" horiz-adv-x="962" d="M80 1620v18h801v-18h-353v-1620h-96v1620h-352z" />
<glyph unicode="U" horiz-adv-x="1114" d="M152 457v1151h98v-1149q0 -78 6 -162t34.5 -152.5t89 -112.5t173.5 -44q70 0 123 20.5t93 53t67.5 74.5t46.5 85q43 102 51 236v1151h20l-2 -1151q-6 -137 -49 -244q-18 -47 -47 -90t-72 -78t-100 -55.5t-131 -20.5t-130 20.5t-98 55.5t-72 78t-48 90q-45 106 -53 244z " />
<glyph unicode="V" horiz-adv-x="960" d="M88 1638h100l336 -1384l322 1384h18l-379 -1638z" />
<glyph unicode="W" horiz-adv-x="1230" d="M88 1638h100l336 -1384l84 358l-250 1026h103l196 -813l189 813h18l-196 -852l129 -532l321 1384h19l-381 -1638l-138 571l-133 -571z" />
<glyph unicode="X" horiz-adv-x="1007" d="M102 0l367 772l-367 866h105l317 -749l359 749h18l-366 -772l366 -866h-104l-318 750l-356 -750h-21z" />
<glyph unicode="Y" horiz-adv-x="1040" d="M119 1638h98l342 -581l342 581h17l-351 -594v-1044h-98v1044z" />
<glyph unicode="Z" horiz-adv-x="1005" d="M104 0l695 1620h-695v18h799l-694 -1620h694v-18h-799z" />
<glyph unicode="\" horiz-adv-x="997" d="M92 1638h96l705 -1638h-98z" />
<glyph unicode="^" horiz-adv-x="356" />
<glyph unicode="_" horiz-adv-x="1077" d="M133 0v96h803v-96h-803z" />
<glyph unicode="`" horiz-adv-x="516" d="M125 1522q0 51 35 80q37 31 88 30q43 0 71.5 -18.5t45 -45t23.5 -56t7 -52.5q0 -141 -174 -289l-41 3q78 66 127 140.5t49 129.5q0 18 -5 31.5t-11 23.5q-8 10 -16 21q-6 -27 -21 -47q-12 -18 -33.5 -33t-56.5 -15q-39 0 -63 27q-25 27 -25 70z" />
<glyph unicode="a" horiz-adv-x="1073" d="M113 434q0 82 29.5 162t88.5 147q53 59 127 95t156 36h4q82 0 160 -36q74 -35 127 -95q16 -16 29 -34v112q0 55 -20.5 114.5t-57.5 109t-87.5 81t-111.5 33.5h-27q-35 0 -75.5 -12t-80.5 -37t-77 -59.5t-64 -79.5h-20q20 39 49 69q4 6 14.5 15.5t22.5 19.5t22.5 18.5 t16.5 12.5q41 27 86 44t98 21h17q6 0 10 3q39 0 74.5 -8.5t70.5 -22.5q66 -29 117 -76q57 -53 87 -119q26 -59 26 -119v-16v-813h-90v164q-6 -8 -13.5 -16.5t-15.5 -16.5q-55 -61 -127 -96t-160 -35t-160 35t-127 96q-59 63 -88.5 142t-29.5 161zM197 440q0 -72 22.5 -146.5 t62.5 -137t95 -104.5t123 -44h10h8q68 2 123 44t95 104.5t62.5 137.5t22.5 146q0 72 -22.5 147t-62.5 136t-96 101t-124 42h-12q-68 -2 -124 -42t-96 -101t-63.5 -136t-23.5 -147z" />
<glyph unicode="b" horiz-adv-x="1093" d="M147 0v1638h91v-688q6 12 13 23.5t15 23.5q29 41 60.5 73t66.5 54q76 49 160 50h2q82 0 160 -50q35 -23 66.5 -54.5t60.5 -72.5q57 -90 88 -196.5t31 -216t-30 -216t-89 -192.5q-55 -80 -127 -127q-78 -49 -160 -49h-2q-84 0 -160 49q-72 47 -127 127q-8 10 -15 21.5 t-13 23.5v-221h-91zM242 592q0 -96 22.5 -196.5t62.5 -184.5t95 -139.5t123 -59.5h10h8q68 4 123 59.5t95 139.5t62.5 184.5t22.5 196.5t-23.5 196.5t-63.5 182.5t-96 135t-124 55h-10q-68 -2 -124 -55t-96 -135t-63.5 -182.5t-23.5 -196.5z" />
<glyph unicode="c" horiz-adv-x="1032" d="M113 581.5q0 108.5 34.5 215t102.5 196.5q31 41 68.5 73t78.5 54q88 47 185 47q125 0 235 -82q57 -45 109 -114h-17q-31 45 -71.5 79.5t-84.5 58.5t-88 36t-83 12q-80 0 -145.5 -53t-114 -136t-75 -183.5t-26.5 -196.5t26.5 -197.5t75 -185.5t114 -138.5t145.5 -54.5 q39 0 83 12.5t88 35t85 57.5t71 80h17q-51 -70 -109 -115q-111 -82 -235 -82q-47 0 -94.5 13.5t-90.5 35.5q-82 45 -147 127q-70 86 -103.5 191.5t-33.5 214z" />
<glyph unicode="d" horiz-adv-x="1083" d="M115 584.5q0 109.5 29.5 216t88.5 196.5q29 41 61 73t66 54q76 49 160 50q82 0 160 -50q35 -23 66.5 -54.5t60.5 -72.5q8 -12 15 -23t14 -24v688h90v-1638h-90v221q-6 -12 -13.5 -23.5t-15.5 -21.5q-55 -80 -127 -127q-78 -49 -160 -49q-84 0 -160 49q-72 47 -127 127 q-59 86 -88.5 192.5t-29.5 216zM207 592q0 -96 23.5 -196.5t63.5 -184.5t95 -139.5t123 -59.5h8h8q68 4 123.5 59.5t95 139.5t63.5 184.5t24 196.5t-24 196.5t-63.5 182.5t-96 135t-124.5 55h-12q-68 -2 -124 -55t-96 -135t-63.5 -182.5t-23.5 -196.5z" />
<glyph unicode="e" horiz-adv-x="1044" d="M115 569v13q0 57 8 113.5t27 109.5q8 25 38.5 85t83 121.5t125 108.5t168.5 47q47 0 88 -15t77 -42t64.5 -59.5t51.5 -67.5q53 -82 92 -182h-692q-10 -27 -18.5 -84.5t-8.5 -128.5v-33q6 -94 35 -190.5t77 -175t111.5 -128t139.5 -49.5q39 0 83 12.5t87 35t84 57.5t71 80 h19q-51 -70 -109 -115q-111 -82 -235 -82q-47 0 -94.5 13.5t-90.5 35.5q-82 45 -147 127q-68 86 -100.5 186.5t-34.5 206.5zM254 819h582q-20 92 -58 166q-31 63 -83 115.5t-130 52.5t-136 -52t-97 -116q-45 -74 -78 -166z" />
<glyph unicode="f" horiz-adv-x="989" d="M86 1174v18h100v86v16q0 60 27 118q31 67 88 120q51 49 115 76q35 14 70.5 22t74.5 8q4 -2 10 -2h17q53 -4 99 -21.5t87 -43.5q6 -4 16.5 -12.5t22.5 -18.5t22.5 -19.5t14.5 -15.5q16 -16 26.5 -34.5t20.5 -34.5h-23q-25 41 -60.5 75.5t-75.5 59t-82 39t-76 14.5h-25 q-61 -2 -111.5 -33.5t-87.5 -81t-57 -109t-20 -114.5l-3 -94h293v-18h-293v-1174h-90v1174h-100z" />
<glyph unicode="g" horiz-adv-x="1081" d="M115 584.5q0 109.5 29.5 216t88.5 196.5q27 41 61 73t68 54q74 47 158 47h2q86 0 160 -47q35 -23 67.5 -54.5t59.5 -72.5q8 -12 15 -24t14 -25v226h90v-1223v-16q0 -60 -26 -119q-30 -66 -87 -119q-51 -47 -117 -76q-35 -14 -70.5 -22.5t-74.5 -8.5h-27q-53 4 -98 21.5 t-86 44.5q-6 2 -16.5 11t-22.5 20.5t-22.5 20.5t-14.5 16q-29 31 -49 69h21q25 -41 60.5 -75.5t76.5 -60.5t83 -40t77 -14h24q61 2 111.5 33.5t87.5 81t57.5 108.5t20.5 115l2 278q-6 -10 -13.5 -21.5t-15.5 -21.5q-57 -84 -127 -129q-74 -47 -160 -47h-2q-84 0 -158 47 q-72 47 -129 129q-59 86 -88.5 192.5t-29.5 216zM209 590q0 -96 22.5 -196.5t62.5 -184.5t95 -139.5t123 -59.5h10h8q68 4 123.5 59.5t95 139.5t62.5 184.5t23 196.5t-23 196.5t-62.5 183.5t-96 136t-124.5 55h-12q-68 -2 -124 -55t-96 -136t-63.5 -183.5t-23.5 -196.5z" />
<glyph unicode="h" horiz-adv-x="1040" d="M147 0v1638h101v-651q20 33 51 66.5t72 60.5t95 43.5t124 16.5q68 0 123 -22t95 -78t61.5 -153.5t21.5 -248.5v-672h-94v635q0 100 -13.5 194.5t-43 166t-79 115.5t-120.5 44q-53 0 -96.5 -16.5t-78 -43t-60 -60.5t-40.5 -68q-8 -20 -12 -47t-6 -54v-866h-101z" />
<glyph unicode="i" horiz-adv-x="393" d="M125 1507q0 23 14.5 38.5t36.5 15.5h27q23 0 38 -15.5t15 -38.5t-15.5 -37t-37.5 -14h-27q-23 0 -37 14.5t-14 36.5zM145 0v1174h91v-1174h-91z" />
<glyph unicode="j" horiz-adv-x="944" d="M76 -221h20q25 -41 61 -76t77.5 -59.5t83.5 -39t77 -14.5h25q61 2 111.5 34t87 81t57 108.5t20.5 114.5v1231h90v-1222v-16q0 -60 -26 -119q-29 -66 -86 -119q-51 -47 -117 -76q-35 -14 -70.5 -22.5t-74.5 -8.5h-11q-4 0 -9 1t-7 1q-53 4 -98 21.5t-86 44.5 q-6 2 -16.5 11t-22.5 20.5t-22.5 20.5t-14.5 15q-31 33 -49 68zM682 1495q0 23 14.5 37t36.5 14h27q23 0 38 -14t15 -37t-15.5 -38t-37.5 -15h-27q-23 0 -37 15.5t-14 37.5z" />
<glyph unicode="k" horiz-adv-x="1048" d="M147 0v1638h91v-743l448 279h35l-420 -263l660 -911h-91l-632 874v-874h-91z" />
<glyph unicode="l" horiz-adv-x="395" d="M147 0v1638h91v-1638h-91z" />
<glyph unicode="m" horiz-adv-x="1685" d="M141 0v1147h101v-162q20 33 51 66.5t72 60.5t95 44.5t124 17.5q49 0 92 -10.5t77.5 -36t62.5 -69.5t44 -110q29 61 80 113q43 41 115 77t178 36q68 0 123 -22t95 -79t62.5 -154.5t22.5 -248.5v-670h-94v635q0 100 -13.5 194.5t-43 166t-79 115.5t-120.5 44 q-53 0 -97.5 -16.5t-79 -44t-60 -61.5t-40.5 -68q-10 -23 -14 -57t-4 -62v-846h-4h-94v4v631q0 100 -13.5 194.5t-43 166t-79 115.5t-120.5 44q-53 0 -97.5 -16.5t-79 -44t-60.5 -61.5t-40 -68q-10 -23 -14 -57t-4 -62v-846h-101z" />
<glyph unicode="n" horiz-adv-x="1034" d="M141 0v1147h101v-160q20 33 51 66.5t72 60.5t95 43.5t124 16.5q68 0 123 -22t95 -78t61.5 -153.5t21.5 -248.5v-672h-94v635q0 100 -13.5 194.5t-43 166t-79 115.5t-120.5 44q-53 0 -96.5 -16.5t-78 -44t-60.5 -61.5t-40 -68q-10 -23 -14 -57t-4 -62v-846h-101z" />
<glyph unicode="o" horiz-adv-x="1163" d="M117 584.5q0 109.5 33.5 216t99.5 196.5q31 41 66.5 73t76.5 54q86 49 180 50q94 0 181 -50q41 -23 76.5 -54.5t66.5 -72.5q66 -90 99.5 -196.5t33.5 -216t-32.5 -216t-100.5 -192.5q-68 -82 -143 -127q-86 -49 -181 -49q-94 0 -180 49q-76 45 -143 127 q-68 86 -100.5 192.5t-32.5 216zM221 592q0 -96 25.5 -196.5t70.5 -184.5t107.5 -139.5t138.5 -59.5h10h11q76 4 138 59.5t107 139.5t71 184.5t26 196.5t-26 196.5t-72 182.5t-109.5 135t-138.5 55h-13q-76 -2 -139 -55t-109.5 -135t-72 -182.5t-25.5 -196.5z" />
<glyph unicode="p" horiz-adv-x="1087" d="M141 -410v1584h90v-222q6 12 13.5 23.5t15.5 21.5q55 80 127 127q76 49 160 50h2q82 0 160 -50q72 -47 127 -127q59 -86 88.5 -192.5t29.5 -216t-30.5 -217t-87.5 -195.5q-55 -82 -127 -129q-74 -47 -160 -47h-2q-86 0 -160 47q-72 47 -127 129q-8 12 -15 23.5t-14 23.5 v-633h-90zM236 582q0 -96 23.5 -196.5t63 -182.5t96 -135.5t124.5 -55.5h10q68 2 124 55.5t96 135.5t63.5 182t23.5 197q0 94 -22.5 195.5t-62.5 185.5t-95 139t-123 59h-8h-10q-68 -4 -123.5 -59t-95 -139t-62 -185.5t-22.5 -195.5z" />
<glyph unicode="q" horiz-adv-x="1083" d="M115 588.5q0 109.5 29.5 216t88.5 192.5q29 41 62 73t67 54q76 49 160 50q82 0 160 -50q72 -47 127 -127q8 -10 15 -21t14 -24v222h90v-1584h-90v633q-6 -12 -13.5 -23.5t-15.5 -23.5q-55 -82 -127 -129q-74 -47 -160 -47t-160 47q-35 23 -67.5 55.5t-61.5 73.5 q-59 88 -88.5 195.5t-29.5 217zM209 582q0 -96 23.5 -196.5t63.5 -182.5t96.5 -135.5t123.5 -55.5h12q68 2 124.5 55.5t96 135.5t63.5 182.5t24 196.5q0 94 -24 195.5t-63.5 185.5t-95 139t-123.5 59h-8h-8q-68 -4 -123 -59t-95 -139t-63.5 -185.5t-23.5 -195.5z" />
<glyph unicode="r" horiz-adv-x="1054" d="M139 0v1174h90v-250q23 39 45 69q31 41 69 73t79 54q88 47 184 47q127 0 238 -82q29 -23 55.5 -51t50.5 -63h-20q-63 92 -154.5 139t-169.5 47t-144.5 -50t-117.5 -130t-82 -177.5t-33 -191.5v-608h-90z" />
<glyph unicode="s" horiz-adv-x="985" d="M113 186v21q33 -55 82 -96q41 -35 103 -65t148 -30q102 0 174 34t112 87t50 117q4 22 4 44q0 42 -14 84q-20 62 -71.5 114.5t-131.5 78.5q-61 20 -104 34t-78 25t-65.5 24.5t-63.5 31.5q-90 50 -124 114q-23 42 -23 89q0 23 6 47q6 25 25.5 64.5t58.5 76.5t97 65t138 28 q84 0 141.5 -27t92.5 -57q41 -37 65 -84v-23q-27 49 -69 88q-37 33 -94.5 60.5t-139.5 27.5t-133 -43q-51 -44 -73 -102q-16 -43 -16 -85q0 -16 3 -32q8 -59 45 -92q39 -35 93.5 -58.5t114.5 -43t118.5 -38t107.5 -38.5q72 -33 113 -91q41 -60 51 -130q3 -24 3 -48 q-1 -47 -13 -95q-20 -73 -71.5 -131t-134.5 -96t-198 -38q-88 0 -149.5 29.5t-102.5 64.5q-47 41 -77 94z" />
<glyph unicode="t" horiz-adv-x="618" d="M147 0v1638h91v-446h301v-18h-301v-1174h-91z" />
<glyph unicode="u" horiz-adv-x="1030" d="M133 506v670h94v-635q0 -100 13.5 -194.5t43 -166t79 -116t120.5 -44.5q51 0 96.5 16.5t80 44.5t60 61.5t40.5 68.5q10 23 14 56.5t4 62.5v846h99v-1147h-99v161q-23 -33 -52.5 -66.5t-71.5 -60t-95 -44t-123 -17.5q-68 0 -124 21.5t-96 79t-61.5 154.5t-21.5 249z" />
<glyph unicode="v" horiz-adv-x="1009" d="M92 1174h90l359 -1016l344 1016h18l-397 -1174z" />
<glyph unicode="w" horiz-adv-x="1337" d="M92 1174h90l359 -1016l116 346l-237 670h92l190 -541l183 541h18l-192 -570l159 -446l342 1016h21l-397 -1174l-168 475l-162 -475z" />
<glyph unicode="x" horiz-adv-x="1024" d="M104 0l379 559l-379 615h91l335 -545l367 542h18l-376 -557l376 -614h-90l-333 545l-369 -545h-19z" />
<glyph unicode="y" horiz-adv-x="1009" d="M92 1174h90l359 -1014l344 1014h18l-538 -1584h-19l150 439z" />
<glyph unicode="z" horiz-adv-x="1026" d="M106 0l711 1155h-711v19h812l-711 -1156h711v-18h-812z" />
<glyph unicode="&#xad;" d="M158 600v98h803v-98h-803z" />
<glyph unicode="&#xbf;" horiz-adv-x="800" d="M96 231q0 29 7.5 52.5t23.5 54.5q80 137 145 268q27 55 53.5 114.5t47 118t33 110.5t12.5 95v101q0 8 2 2h88q2 -66 -2 -127q-4 -53 -12.5 -110.5t-30.5 -100.5q-53 -104 -99.5 -200.5t-82 -174.5t-56 -131t-20.5 -72q0 -98 52 -155.5t126 -57.5h322v-18h-322 q-55 0 -106.5 16t-92.5 47q-88 70 -88 168zM365 1542q0 39 28 68q29 29 68 28q37 0 65 -28q29 -29 29 -68q0 -37 -29 -65q-28 -29 -65 -29q-41 0 -68 27q-29 29 -28 67z" />
<glyph unicode="&#xc0;" horiz-adv-x="978" d="M100 0l381 1638l396 -1638h-101l-231 952h-205l-221 -952h-19zM293 2103h92l225 -248h-90zM344 971h197l-101 413z" />
<glyph unicode="&#xc4;" horiz-adv-x="978" d="M100 0l381 1638l396 -1638h-101l-231 952h-205l-221 -952h-19zM238 1939q0 23 14 37.5t37 14.5h26q23 0 37.5 -14.5t14.5 -37.5t-14.5 -37t-37.5 -14h-26q-23 0 -37 14.5t-14 36.5zM344 971h197l-101 413zM571 1939q0 23 14.5 37.5t37.5 14.5h26q23 0 37 -14.5t14 -37.5 t-14 -37t-37 -14h-26q-23 0 -37.5 14.5t-14.5 36.5z" />
<glyph unicode="&#xc8;" horiz-adv-x="954" d="M147 0v1638h693v-18h-594v-524h594v-19h-594v-1059h594v-18h-693zM293 2103h92l225 -248h-90z" />
<glyph unicode="&#xcb;" horiz-adv-x="954" d="M147 0v1638h693v-18h-594v-524h594v-19h-594v-1059h594v-18h-693zM340 1939q0 23 14.5 37.5t36.5 14.5h27q23 0 37 -14.5t14 -37.5t-14.5 -37t-36.5 -14h-27q-23 0 -37 14.5t-14 36.5zM674 1939q0 23 14 37.5t37 14.5h27q23 0 37 -14.5t14 -37.5t-14.5 -37t-36.5 -14h-27 q-23 0 -37 14.5t-14 36.5z" />
<glyph unicode="&#xcc;" horiz-adv-x="403" d="M49 2103h92l226 -248h-91zM147 0v1638h99v-1638h-99z" />
<glyph unicode="&#xce;" horiz-adv-x="1705" />
<glyph unicode="&#xcf;" horiz-adv-x="403" d="M-29 1939q0 23 14.5 37.5t37.5 14.5h26q23 0 37 -14.5t14 -37.5t-14 -37t-37 -14h-26q-23 0 -37.5 14.5t-14.5 36.5zM147 0v1638h99v-1638h-99zM305 1939q0 23 14.5 37.5t36.5 14.5h27q23 0 37 -14.5t14 -37.5t-14 -37t-37 -14h-27q-23 0 -37 14.5t-14 36.5z" />
<glyph unicode="&#xd2;" horiz-adv-x="1259" d="M120 815.5q1 153.5 38 303t108 274.5q68 113 158 178q94 68 199 67h2q100 0 196 -67q90 -65 158 -178q72 -125 108.5 -274.5t37.5 -303t-35.5 -301t-110.5 -268.5q-72 -117 -158 -178q-92 -66 -196 -66h-2q-106 0 -199 66q-86 61 -158 178q-74 121 -110.5 268.5 t-35.5 301zM236 825q0 -133 28.5 -273t77.5 -257t117.5 -193.5t152.5 -83.5q2 -2 4 -2h7h8q2 0 4 2q82 6 151.5 83t118.5 194t78 257t29 273q0 88 -13.5 181.5t-37 181.5t-57.5 166t-76 137t-92 94t-105 37h-15q-55 -2 -105 -37t-92 -94t-76 -137t-57.5 -166t-36.5 -181.5 t-13 -181.5zM375 2103h92l225 -248h-90z" />
<glyph unicode="&#xd4;" horiz-adv-x="1212" d="M140 584.5q1 109.5 35 216t99 196.5q59 80 144 129q86 49 182 50h2q96 0 182 -50q84 -49 144 -129h-4q66 -90 99.5 -196.5t34.5 -216t-32 -215t-100 -191.5q-68 -82 -144 -127q-86 -49 -182 -49h-2q-96 0 -182 49q-76 45 -144 127q-68 86 -100.5 191.5t-31.5 215z M246 592q0 -96 25.5 -196.5t71.5 -184.5t108.5 -139.5t138.5 -59.5h10h10h-4q76 4 138.5 59.5t108.5 139.5t71.5 184.5t25.5 196.5t-25.5 196.5t-71.5 183.5t-109.5 136t-139.5 55h-12q-76 -2 -139.5 -55t-109.5 -136t-71.5 -183.5t-25.5 -196.5zM322 1339l274 299l270 -297 h-90l-180 197l-184 -199h-90z" />
<glyph unicode="&#xd6;" horiz-adv-x="1259" d="M120 815.5q1 153.5 38 303t108 274.5q68 113 158 178q94 68 199 67h2q100 0 196 -67q90 -65 158 -178q72 -125 108.5 -274.5t37.5 -303t-35.5 -301t-110.5 -268.5q-72 -117 -158 -178q-92 -66 -196 -66h-2q-106 0 -199 66q-86 61 -158 178q-74 121 -110.5 268.5 t-35.5 301zM236 825q0 -133 28.5 -273t77.5 -257t117.5 -193.5t152.5 -83.5q2 -2 4 -2h7h8q2 0 4 2q82 6 151.5 83t118.5 194t78 257t29 273q0 88 -13.5 181.5t-37 181.5t-57.5 166t-76 137t-92 94t-105 37h-15q-55 -2 -105 -37t-92 -94t-76 -137t-57.5 -166t-36.5 -181.5 t-13 -181.5zM369 1925q0 23 14 37t37 14h26q23 0 37.5 -14t14.5 -37t-14.5 -37t-37.5 -14h-26q-23 0 -37 14.5t-14 36.5zM702 1925q0 23 14.5 37t37.5 14h26q23 0 37 -14t14 -37t-14 -37t-37 -14h-26q-23 0 -37.5 14.5t-14.5 36.5z" />
<glyph unicode="&#xd9;" horiz-adv-x="1114" d="M152 457v1151h98v-1149q0 -78 6 -162t34.5 -152.5t89 -112.5t173.5 -44q70 0 123 20.5t93 53t67.5 74.5t46.5 85q43 102 51 236v1151h20l-2 -1151q-6 -137 -49 -244q-18 -47 -47 -90t-72 -78t-100 -55.5t-131 -20.5t-130 20.5t-98 55.5t-72 78t-48 90q-45 106 -53 244z M375 2103h92l225 -248h-90z" />
<glyph unicode="&#xdb;" horiz-adv-x="1705" />
<glyph unicode="&#xdc;" horiz-adv-x="1114" d="M152 457v1151h98v-1149q0 -78 6 -162t34.5 -152.5t89 -112.5t173.5 -44q70 0 123 20.5t93 53t67.5 74.5t46.5 85q43 102 51 236v1151h20l-2 -1151q-6 -137 -49 -244q-18 -47 -47 -90t-72 -78t-100 -55.5t-131 -20.5t-130 20.5t-98 55.5t-72 78t-48 90q-45 106 -53 244z M369 1925q0 23 14 37t37 14h26q23 0 37.5 -14t14.5 -37t-14.5 -37t-37.5 -14h-26q-23 0 -37 14.5t-14 36.5zM702 1925q0 23 14.5 37t37.5 14h26q23 0 37 -14t14 -37t-14 -37t-37 -14h-26q-23 0 -37.5 14.5t-14.5 36.5z" />
<glyph unicode="&#xdf;" horiz-adv-x="1009" d="M135 0v1380q0 37 6 74t29 66q47 63 103.5 90.5t121.5 27.5q66 0 116 -19.5t93 -59.5q94 -88 94 -211q0 -125 -94 -213q-37 -37 -94 -60q-16 -8 -23 -8q80 -16 150 -64t123 -114q57 -72 89 -164t32 -195q0 -104 -32 -196t-89 -164q-66 -86 -157 -128t-195 -42h-5 q-6 0 -6 8q0 6 6 6h5q14 0 47.5 5.5t74.5 22.5t85 50t80 90.5t59.5 142.5t23.5 205q0 154 -41 253.5t-97 158.5t-114.5 87t-91.5 34h-49v12h10q94 0 142.5 78t48.5 195q0 61 -15.5 112t-41 88t-60.5 57.5t-74 20.5t-67.5 -20.5t-48 -53t-28.5 -74.5t-9 -85v-1393h-107z" />
<glyph unicode="&#xe0;" horiz-adv-x="1071" d="M113 430q0 82 29.5 162t88.5 147q55 61 127 97q72 35 160 34q88 0 160 -34q72 -35 127 -97q16 -16 29 -34v114q0 55 -20.5 114.5t-57.5 109t-87.5 81t-111.5 33.5h-27q-35 0 -75.5 -12t-80.5 -37t-77 -60.5t-64 -80.5h-20q20 39 49 69q4 6 14.5 15.5t22.5 20.5t22.5 19.5 t16.5 12.5q41 27 86 44t98 21h27q76 0 145 -28q66 -29 117 -76q57 -53 87 -120.5t26 -135.5v-813h-90v164q-6 -8 -13.5 -16.5t-15.5 -16.5q-53 -59 -127 -94q-78 -37 -160 -37q-84 0 -160 37q-74 35 -127 94q-59 63 -88.5 142t-29.5 161zM197 436q0 -72 22.5 -146.5 t62.5 -137t95 -103.5t123 -43q2 -2 4 -2h6h4q2 0 4 2q68 2 123 43t95 103.5t62.5 137.5t22.5 146q0 72 -22.5 146.5t-62.5 136t-96 101.5t-124 42h-12q-68 -2 -124 -42t-96 -101.5t-63.5 -136t-23.5 -146.5zM291 1638h92l225 -247h-90z" />
<glyph unicode="&#xe2;" horiz-adv-x="1105" d="M141 442q0 82 30 162t89 148q55 61 127 96q76 37 160 37q82 0 160 -37q72 -35 127 -96q8 -8 14 -16.5t12 -18.5v112q0 55 -20.5 115t-56 109t-86 80.5t-111.5 33.5h-25q-35 0 -76 -12t-82 -36.5t-77.5 -59.5t-63.5 -80h-20q18 33 49 68q4 6 14 15t22.5 19.5t22.5 18.5 t17 12q41 27 87 43t99 21h27q39 0 74.5 -8.5t70.5 -22.5q63 -27 117 -78l-8 6q57 -53 86.5 -119.5t25.5 -134.5v-813h-90v164q-6 -8 -12 -15.5t-15 -15.5q-57 -63 -124 -96q-78 -37 -160 -37q-84 0 -160 37q-68 33 -125 96q-59 63 -89 142t-30 161zM219 449q0 -72 23.5 -148 t63.5 -138.5t95.5 -104.5t122.5 -44h8h9h4q68 2 123 44t95 104.5t63.5 138.5t23.5 148t-23.5 146.5t-64.5 136t-97.5 101t-123.5 41.5h-13q-68 -2 -124 -41.5t-97 -101t-64.5 -136.5t-23.5 -146zM315 1346l275 299l270 -297h-90l-180 196l-184 -198h-91z" />
<glyph unicode="&#xe4;" horiz-adv-x="1073" d="M113 434q0 82 29.5 162t88.5 147q53 59 127 95q76 37 160 36q82 0 160 -36q74 -35 127 -95q16 -16 29 -34v112q0 55 -20.5 114.5t-57.5 109t-87.5 81t-111.5 33.5h-27q-35 0 -75.5 -12t-80.5 -37t-77 -59.5t-64 -79.5h-20q20 39 49 69q4 6 14.5 15.5t22.5 19.5t22.5 18.5 t16.5 12.5q41 27 86 44t98 21h17q6 0 10 3q39 0 74.5 -8.5t70.5 -22.5q66 -29 117 -76q57 -53 87 -119.5t26 -134.5v-813h-90v164q-6 -8 -13.5 -16.5t-15.5 -16.5q-55 -61 -127 -96t-160 -35t-160 35t-127 96q-59 63 -88.5 142t-29.5 161zM197 440q0 -72 22.5 -146.5 t62.5 -137t95 -104.5t123 -44h10h8q68 2 123 44t95 104.5t62.5 137.5t22.5 146q0 72 -22.5 147t-62.5 136t-96 101t-124 42h-12q-68 -2 -124 -42t-96 -101t-63.5 -136t-23.5 -147zM340 1468q0 23 14.5 37.5t36.5 14.5h27q23 0 37 -14.5t14 -37.5t-14.5 -37t-36.5 -14h-27 q-23 0 -37 14.5t-14 36.5zM674 1468q0 23 14 37.5t37 14.5h27q23 0 37 -14.5t14 -37.5t-14.5 -37t-36.5 -14h-27q-23 0 -37 14.5t-14 36.5z" />
<glyph unicode="&#xe7;" horiz-adv-x="1030" d="M113 579.5q0 108.5 34.5 215t102.5 196.5q31 41 68.5 73t78.5 54q43 23 90.5 36t94.5 13q125 0 235 -82q57 -45 109 -114h-17q-31 45 -71.5 79.5t-84.5 57t-88 35t-83 12.5q-80 0 -145.5 -52t-114 -135t-75 -183.5t-26.5 -196.5t26.5 -198.5t75 -186.5t114 -138.5 t145.5 -54.5q39 0 83 12.5t88 36t85 58.5t71 80h17q-51 -70 -109 -115q-100 -76 -215 -82q10 -2 18.5 -6t18.5 -8q14 -8 28.5 -19.5t24.5 -25.5q47 -63 48 -144.5t-48 -142.5q-10 -14 -24.5 -25.5t-28.5 -19.5q-33 -16 -64 -17q-45 0 -83 29q-23 18 -39 41h14 q23 -33 51.5 -42t56.5 -9q27 0 49.5 16.5t37 44t22.5 60t8 67.5q0 72 -18.5 112t-40.5 60q-25 23 -58 29q-47 2 -92 13.5t-86 33.5q-82 45 -147 127q-70 86 -103.5 191.5t-33.5 214z" />
<glyph unicode="&#xe8;" horiz-adv-x="1042" d="M115 569v15q0 119 35 221q8 25 38.5 85t83 121.5t125 108.5t168.5 47q47 0 88 -15t77 -42t64.5 -59.5t51.5 -67.5q53 -82 92 -182h-692q-10 -27 -18.5 -84.5t-8.5 -128.5v-33q6 -94 35 -190.5t77 -175t111.5 -128t139.5 -49.5q39 0 83 12.5t87 35t84 57.5t71 80h19 q-51 -70 -109 -115q-111 -82 -235 -82q-47 0 -94.5 13.5t-90.5 35.5q-82 45 -147 127q-68 86 -100.5 186.5t-34.5 206.5zM254 819h582q-20 92 -58 166q-31 63 -83 115.5t-130 52.5t-136 -52t-97 -116q-45 -74 -78 -166zM293 1638h92l225 -247h-90z" />
<glyph unicode="&#xe9;" horiz-adv-x="1042" d="M115 569v15q0 119 35 221q8 25 38.5 85t83 121.5t125 108.5t168.5 47q47 0 88 -15t77 -42t64.5 -59.5t51.5 -67.5q53 -82 92 -182h-692q-10 -27 -18.5 -84.5t-8.5 -128.5v-33q6 -94 35 -190.5t77 -175t111.5 -128t139.5 -49.5q39 0 83 12.5t87 35t84 57.5t71 80h19 q-51 -70 -109 -115q-111 -82 -235 -82q-47 0 -94.5 13.5t-90.5 35.5q-82 45 -147 127q-68 86 -100.5 186.5t-34.5 206.5zM254 819h582q-20 92 -58 166q-31 63 -83 115.5t-130 52.5t-136 -52t-97 -116q-45 -74 -78 -166zM514 1391l227 247h90l-225 -247h-92z" />
<glyph unicode="&#xea;" horiz-adv-x="1040" d="M104 567v15q0 115 37 223q8 25 39 85t83 122.5t125 109.5t169 47q47 0 89 -15t77 -42t64.5 -59.5t52.5 -67.5q53 -82 92 -182h-692q-10 -27 -18.5 -84t-8.5 -129v-35q6 -94 34.5 -190.5t77 -175t112 -128t138.5 -49.5h-2q39 0 83 12.5t87 35t84 57.5t72 80h19 q-51 -70 -109 -115q-111 -82 -238 -82q-94 0 -182 47q-82 45 -147 127q-68 86 -102 186.5t-36 206.5zM248 821h579q-20 92 -57 166q-31 61 -83 113.5t-130 52.5h2q-78 0 -136 -52t-97 -114q-45 -74 -78 -166zM301 1339l274 299l271 -297h-90l-181 197l-184 -199h-90z" />
<glyph unicode="&#xeb;" horiz-adv-x="1036" d="M106 567v15q0 115 37 223q8 25 39 85t83 122.5t125 109.5t169 47q47 0 89 -15t77 -42t64.5 -59.5t52.5 -67.5q53 -82 92 -182h-692q-10 -27 -18.5 -84t-8.5 -129v-35q6 -94 35 -190.5t77 -175t111.5 -128t139.5 -49.5h-3q39 0 83 12.5t87 35t84 57.5t72 80h19 q-51 -70 -109 -115q-111 -82 -238 -82q-94 0 -182 47q-82 45 -147 127q-68 86 -101.5 186.5t-36.5 206.5zM250 821h579q-20 92 -57 166q-31 61 -83 113.5t-130 52.5h2q-78 0 -136 -52t-97 -114q-45 -74 -78 -166zM340 1468q0 23 14.5 37.5t36.5 14.5h27q23 0 37 -14.5 t14 -37.5t-14.5 -37t-36.5 -14h-27q-23 0 -37 14.5t-14 36.5zM674 1468q0 23 14 37.5t37 14.5h27q23 0 37 -14.5t14 -37.5t-14.5 -37t-36.5 -14h-27q-23 0 -37 14.5t-14 36.5z" />
<glyph unicode="&#xee;" horiz-adv-x="778" d="M117 1339l274 299l266 -299h-90l-180 197l-180 -197h-90zM344 0v1174h90v-1174h-90z" />
<glyph unicode="&#xef;" horiz-adv-x="632" d="M135 1509q0 23 14.5 37.5t36.5 14.5h27q23 0 37 -14.5t14 -37.5t-14 -37t-37 -14h-27q-23 0 -37 14.5t-14 36.5zM262 0v1174h90v-1174h-90zM365 1509q0 23 14 37.5t37 14.5h26q23 0 37.5 -14.5t14.5 -37.5t-14.5 -37t-37.5 -14h-26q-23 0 -37 14.5t-14 36.5z" />
<glyph unicode="&#xf6;" horiz-adv-x="1163" d="M117 584.5q0 109.5 33.5 216t99.5 196.5q31 41 66.5 73t76.5 54q86 49 180 50q94 0 181 -50q41 -23 76.5 -54.5t66.5 -72.5q66 -90 99.5 -196.5t33.5 -216t-32.5 -216t-100.5 -192.5q-68 -82 -143 -127q-86 -49 -181 -49q-94 0 -180 49q-76 45 -143 127 q-68 86 -100.5 192.5t-32.5 216zM221 592q0 -96 25.5 -196.5t70.5 -184.5t107.5 -139.5t138.5 -59.5h10h11q76 4 138 59.5t107 139.5t71 184.5t26 196.5t-26 196.5t-72 182.5t-109.5 135t-138.5 55h-13q-76 -2 -139 -55t-109.5 -135t-72 -182.5t-25.5 -196.5zM340 1468 q0 23 14.5 37.5t36.5 14.5h27q23 0 37 -14.5t14 -37.5t-14.5 -37t-36.5 -14h-27q-23 0 -37 14.5t-14 36.5zM674 1468q0 23 14 37.5t37 14.5h27q23 0 37 -14.5t14 -37.5t-14.5 -37t-36.5 -14h-27q-23 0 -37 14.5t-14 36.5z" />
<glyph unicode="&#xf9;" horiz-adv-x="1028" d="M131 502v672h94v-635q0 -100 13.5 -194.5t43 -166.5t79 -116t120.5 -44q51 0 96.5 16.5t80 43t60 60.5t40.5 69q10 23 14 56.5t4 62.5v848h98v-1147h-98v159q-23 -33 -52.5 -66.5t-71.5 -60t-95 -43t-123 -16.5q-68 0 -124 21.5t-96 78t-61.5 153.5t-21.5 249zM311 1638 h90l228 -247h-90z" />
<glyph unicode="&#xfc;" horiz-adv-x="1030" d="M133 506v670h94v-635q0 -100 13.5 -194.5t43 -166t79 -116t120.5 -44.5q51 0 96.5 16.5t80 44.5t60 61.5t40.5 68.5q10 23 14 56.5t4 62.5v846h99v-1147h-99v161q-23 -33 -52.5 -66.5t-71.5 -60t-95 -44t-123 -17.5q-68 0 -124 21.5t-96 79t-61.5 154.5t-21.5 249z M274 1468q0 23 14.5 37.5t37.5 14.5h26q23 0 37 -14.5t14 -37.5t-14 -37t-37 -14h-26q-23 0 -37.5 14.5t-14.5 36.5zM608 1468q0 23 14.5 37.5t36.5 14.5h27q23 0 37 -14.5t14 -37.5t-14 -37t-37 -14h-27q-23 0 -37 14.5t-14 36.5z" />
<glyph unicode="&#x2000;" horiz-adv-x="1051" />
<glyph unicode="&#x2001;" horiz-adv-x="2103" />
<glyph unicode="&#x2002;" horiz-adv-x="1051" />
<glyph unicode="&#x2003;" horiz-adv-x="2103" />
<glyph unicode="&#x2004;" horiz-adv-x="701" />
<glyph unicode="&#x2005;" horiz-adv-x="525" />
<glyph unicode="&#x2006;" horiz-adv-x="350" />
<glyph unicode="&#x2007;" horiz-adv-x="350" />
<glyph unicode="&#x2008;" horiz-adv-x="262" />
<glyph unicode="&#x2009;" horiz-adv-x="420" />
<glyph unicode="&#x200a;" horiz-adv-x="116" />
<glyph unicode="&#x2010;" d="M158 600v98h803v-98h-803z" />
<glyph unicode="&#x2011;" d="M158 600v98h803v-98h-803z" />
<glyph unicode="&#x2012;" d="M158 600v98h803v-98h-803z" />
<glyph unicode="&#x2013;" horiz-adv-x="1339" d="M158 600v98h1024v-98h-1024z" />
<glyph unicode="&#x2014;" horiz-adv-x="2363" d="M158 600v98h2048v-98h-2048z" />
<glyph unicode="&#x202f;" horiz-adv-x="420" />
<glyph unicode="&#x205f;" horiz-adv-x="525" />
<glyph unicode="&#x25fc;" horiz-adv-x="1177" d="M0 0v1178h1178v-1178h-1178z" />
</font>
</defs>
</svg>
